<?xml version="1.0" encoding="utf-8"?>
<!-- Generator: Adobe Illustrator 22.0.1, SVG Export Plug-In . SVG Version: 6.00 Build 0)  -->
<svg version="1.1" id="Layer_1" xmlns="http://www.w3.org/2000/svg" xmlns:xlink="http://www.w3.org/1999/xlink" x="0px" y="0px"
	 viewBox="0 0 4000 4000" style="enable-background:new 0 0 4000 4000;" xml:space="preserve">
<g>
	<g>
		<path d="M1581.9,1486.1l-511.8,511.8L900,1825.2l681.9-684.4l275.6,275.6c-34,104.5-41.3,216.4-21.9,323.4L1581.9,1486.1z"/>
		<path d="M2275.8,1837.1l-170.2,170.2c-26.7-26.7-51.1-53.5-70.5-85.1c-9.7-14.6-19.5-31.6-26.7-46.2c-9.7-14.6-17-31.6-21.9-48.6
			c-7.3-12.2-9.7-24.3-14.6-36.5c-9.7-29.2-14.6-55.9-19.4-85.1c-4.9-26.7-7.3-55.9-7.3-82.7c0-36.5,2.4-73,9.7-109.4l311.2,311.2
			C2268.5,1829.8,2273.3,1832.2,2275.8,1837.1z"/>
		<path d="M2431.4,2761c-107,107-245.6,160.5-386.6,160.5c-138.6,0-277.2-53.5-384.2-160.5L1437,2537.4l170.2-172.6l226.1,223.6
			c58.4,58.4,136.2,90,211.5,90c77.8,0,155.6-31.6,214-90c58.4-55.9,87.5-131.3,87.5-211.5c0-82.7-29.2-158-87.5-214l-182.3-182.3
			l172.6-172.6l182.3,182.3C2642.9,2204.2,2642.9,2549.5,2431.4,2761z"/>
	</g>
	<g>
		<path d="M3100,1462.6l-172.6,172.6l-223.6-226.1c-58.4-58.4-136.2-87.5-214-87.5c-77.8,0-153.2,29.2-214,87.5
			c-29.2,31.6-53.5,68.1-68.1,107c-4.9,14.6-9.7,26.7-12.2,41.3c-2.4,7.3-4.9,14.6-4.9,21.9c-12.2,87.5,12.2,177.5,75.4,245.6
			c2.4,4.9,7.3,7.3,9.7,12.2l-170.2,170.2c-26.7-26.7-51.1-53.5-70.5-85.1c-9.7-14.6-19.5-31.6-26.7-46.2
			c-9.7-14.6-17-31.6-21.9-48.6c-7.3-12.2-9.7-24.3-14.6-36.5c-9.7-29.2-14.6-55.9-19.4-85.1c-4.9-26.7-7.3-55.9-7.3-82.7
			c0-36.5,2.4-73,9.7-109.4c2.4-4.9,2.4-12.2,4.9-17c0-2.4,0-2.4,2.4-4.9c0-14.6,4.9-29.2,12.2-41.3c7.3-21.9,17-43.8,26.7-63.2
			c9.7-21.9,21.9-43.8,34-63.2c21.9-31.6,43.8-58.4,70.5-85.1c104.6-107,245.6-160.5,384.2-160.5c141,0,279.6,53.5,386.6,160.5
			L3100,1462.6z"/>
	</g>
</g>
</svg>
