<?xml version="1.0" encoding="utf-8"?>
<!-- Generator: Adobe Illustrator 22.0.1, SVG Export Plug-In . SVG Version: 6.00 Build 0)  -->
<svg version="1.1" id="Layer_1" xmlns="http://www.w3.org/2000/svg" xmlns:xlink="http://www.w3.org/1999/xlink" x="0px" y="0px"
	 viewBox="0 0 4000 4000" style="enable-background:new 0 0 4000 4000;" xml:space="preserve">
<g>
	<g>
		<g>
			<path d="M1839.5,1618.6L1643,1815.2l-65.4-66.3l261.9-262.8l105.8,105.8c-13.1,40.1-15.9,83.1-8.4,124.2L1839.5,1618.6z"/>
			<path d="M2105.9,1753.4l-65.4,65.4c-10.3-10.3-19.6-20.5-27.1-32.7c-3.7-5.6-7.5-12.1-10.3-17.7c-3.7-5.6-6.5-12.1-8.4-18.7
				c-2.8-4.7-3.7-9.3-5.6-14c-3.7-11.2-5.6-21.5-7.5-32.7c-1.9-10.3-2.8-21.5-2.8-31.7c0-14,0.9-28,3.7-42l119.5,119.5
				C2103.1,1750.6,2105,1751.6,2105.9,1753.4z"/>
			<path d="M2165.7,2108.2c-41.1,41.1-94.3,61.6-148.5,61.6c-53.2,0-106.4-20.5-147.5-61.6l-85.9-85.9l65.4-66.3l86.8,85.9
				c22.4,22.4,52.3,34.5,81.2,34.5c29.9,0,59.8-12.1,82.2-34.5c22.4-21.5,33.6-50.4,33.6-81.2c0-31.7-11.2-60.7-33.6-82.2l-70-70
				l66.3-66.3l70,70C2246.9,1894.4,2246.9,2027,2165.7,2108.2z"/>
		</g>
		<g>
			<path d="M2422.4,1609.6l-66.3,66.3l-85.9-86.8c-22.4-22.4-52.3-33.6-82.2-33.6s-58.8,11.2-82.2,33.6
				c-11.2,12.1-20.5,26.1-26.1,41.1c-1.9,5.6-3.7,10.3-4.7,15.9c-0.9,2.8-1.9,5.6-1.9,8.4c-4.7,33.6,4.7,68.2,28.9,94.3
				c0.9,1.9,2.8,2.8,3.7,4.7l-65.4,65.4c-10.3-10.3-19.6-20.5-27.1-32.7c-3.7-5.6-7.5-12.1-10.3-17.7c-3.7-5.6-6.5-12.1-8.4-18.7
				c-2.8-4.7-3.7-9.3-5.6-14c-3.7-11.2-5.6-21.5-7.5-32.7c-1.9-10.3-2.8-21.5-2.8-31.7c0-14,0.9-28,3.7-42c0.9-1.9,0.9-4.7,1.9-6.5
				c0-0.9,0-0.9,0.9-1.9c0-5.6,1.9-11.2,4.7-15.9c2.8-8.4,6.5-16.8,10.3-24.3c3.7-8.4,8.4-16.8,13.1-24.3
				c8.4-12.1,16.8-22.4,27.1-32.7c40.2-41.1,94.3-61.6,147.5-61.6c54.2,0,107.4,20.5,148.5,61.6L2422.4,1609.6z"/>
		</g>
	</g>
	<g>
		<g>
			<path d="M947.1,2537.9c-9.8,0-18.7-1.9-26.9-5.7c-8.3-3.8-14.9-9.3-20.2-16.4l16.1-19.4c4.2,5.8,8.9,10.2,13.9,13.1
				s10.5,4.3,16.5,4.3c15.8,0,23.8-9.3,23.8-28.1v-78.9h-54.3V2383h82.7v101.2c0,18-4.4,31.5-13.2,40.3
				C976.6,2533.4,963.8,2537.9,947.1,2537.9z"/>
			<path d="M1126.1,2537.9c-11.9,0-22.9-2-33-5.9c-10-3.9-18.7-9.4-26.2-16.5c-7.4-7.1-13.1-15.3-17.2-24.9
				c-4.1-9.5-6.1-19.9-6.1-31.3c0-11.3,2-21.8,6.1-31.2c4.1-9.6,9.9-17.8,17.2-24.9c7.4-7.1,16.2-12.6,26.2-16.5
				c10.1-3.9,21-5.9,32.8-5.9c11.9,0,22.8,2,32.8,5.9c9.9,3.9,18.7,9.4,26,16.5c7.4,7.1,13.2,15.3,17.3,24.9
				c4,9.5,6.1,19.9,6.1,31.2c0,11.4-2,21.8-6.1,31.5c-4.1,9.6-9.9,17.8-17.3,24.8c-7.4,7-16.1,12.4-26,16.4
				C1148.7,2535.9,1137.9,2537.9,1126.1,2537.9z M1125.9,2513c7.7,0,14.8-1.3,21.4-3.9c6.5-2.6,12.2-6.4,17-11.2
				c4.8-4.9,8.6-10.5,11.2-17c2.7-6.5,4-13.6,4-21.5c0-7.8-1.3-15-4-21.5c-2.7-6.4-6.4-12.1-11.2-17c-4.8-4.9-10.5-8.6-17-11.2
				c-6.6-2.7-13.7-3.9-21.4-3.9c-7.7,0-14.8,1.3-21.3,3.9c-6.4,2.6-12.1,6.3-17,11.2c-4.9,4.9-8.6,10.5-11.3,17
				c-2.7,6.4-4.1,13.6-4.1,21.5c0,7.7,1.4,14.9,4.1,21.4c2.7,6.5,6.4,12.3,11.2,17.1c4.8,4.9,10.5,8.6,17,11.2
				C1111,2511.7,1118.2,2513,1125.9,2513z"/>
			<path d="M1301.9,2537.9c-11.9,0-23.3-1.7-34.2-5.2c-10.9-3.4-19.6-7.8-25.9-13.2l9.8-22c6.1,4.8,13.6,8.8,22.7,12
				c9,3.2,18.3,4.8,27.7,4.8c8,0,14.5-0.8,19.4-2.6c5-1.7,8.6-4.2,10.9-7.1c2.4-3,3.5-6.4,3.5-10.2c0-4.6-1.7-8.3-5-11.2
				c-3.3-2.8-7.7-5.1-13-6.7c-5.3-1.7-11.2-3.3-17.7-4.7c-6.4-1.4-13-3.1-19.4-5.1c-6.4-2-12.4-4.6-17.7-7.7
				c-5.3-3.1-9.6-7.3-13-12.5c-3.3-5.2-5-12-5-20.1c0-8.3,2.2-15.8,6.7-22.8c4.4-6.9,11.1-12.4,20.2-16.5c9.1-4.2,20.6-6.2,34.6-6.2
				c9.2,0,18.3,1.1,27.2,3.5c9,2.4,16.9,5.7,23.6,10l-8.9,22.1c-6.8-4.1-13.9-7.1-21.2-9.1c-7.3-2-14.3-2.9-20.9-2.9
				c-7.9,0-14.2,0.9-19.1,2.8c-4.9,1.9-8.4,4.3-10.7,7.4c-2.2,3-3.3,6.5-3.3,10.5c0,4.6,1.6,8.4,4.9,11.2c3.3,2.8,7.5,5.1,12.8,6.7
				c5.3,1.6,11.2,3.1,17.8,4.6c6.5,1.6,13,3.3,19.5,5.2c6.4,1.9,12.4,4.4,17.7,7.4c5.3,3,9.6,7.2,12.9,12.4
				c3.3,5.2,4.9,11.8,4.9,19.9c0,8.1-2.2,15.6-6.6,22.5c-4.5,6.9-11.2,12.4-20.4,16.6C1327.5,2535.8,1315.9,2537.9,1301.9,2537.9z"
				/>
			<path d="M1436.5,2535.7h-28.4V2383h28.4V2535.7z M1517.6,2470.2h-83.5V2446h83.5V2470.2z M1515.4,2383h28.4v152.6h-28.4V2383z"/>
			<path d="M1666.8,2537.9c-20.9,0-37.3-5.9-49.1-17.7c-11.9-11.8-17.8-28.8-17.8-51V2383h28.4v85c0,15.7,3.4,27.1,10.2,34.3
				c6.7,7.1,16.3,10.7,28.7,10.7c12.4,0,21.9-3.6,28.6-10.7c6.7-7.1,10-18.6,10-34.3v-85h27.9v86.1c0,22.2-5.9,39.2-17.7,51
				C1704,2532,1687.6,2537.9,1666.8,2537.9z"/>
			<path d="M1764.8,2535.7l68.7-152.6h27.9l68.9,152.6h-29.7l-59.1-137.6h11.4l-58.9,137.6H1764.8z M1796.4,2500.3l7.6-22.2h82.5
				l7.6,22.2H1796.4z"/>
			<path d="M2089.9,2537.9c-11.9,0-23.3-1.7-34.2-5.2c-10.9-3.4-19.6-7.8-25.9-13.2l9.8-22c6.1,4.8,13.6,8.8,22.7,12
				s18.3,4.8,27.7,4.8c8,0,14.5-0.8,19.4-2.6c5-1.7,8.6-4.2,10.9-7.1c2.4-3,3.5-6.4,3.5-10.2c0-4.6-1.7-8.3-5-11.2
				c-3.3-2.8-7.7-5.1-13-6.7c-5.3-1.7-11.2-3.3-17.7-4.7c-6.4-1.4-13-3.1-19.4-5.1c-6.4-2-12.4-4.6-17.7-7.7
				c-5.3-3.1-9.6-7.3-13-12.5c-3.3-5.2-5-12-5-20.1c0-8.3,2.2-15.8,6.7-22.8c4.4-6.9,11.1-12.4,20.2-16.5s20.6-6.2,34.6-6.2
				c9.2,0,18.3,1.1,27.2,3.5c9,2.4,16.9,5.7,23.6,10l-8.9,22.1c-6.8-4.1-13.9-7.1-21.2-9.1c-7.3-2-14.3-2.9-20.9-2.9
				c-7.9,0-14.2,0.9-19.1,2.8c-4.9,1.9-8.4,4.3-10.7,7.4c-2.2,3-3.3,6.5-3.3,10.5c0,4.6,1.6,8.4,4.9,11.2c3.3,2.8,7.5,5.1,12.8,6.7
				c5.3,1.6,11.2,3.1,17.8,4.6c6.5,1.6,13,3.3,19.5,5.2s12.4,4.4,17.7,7.4c5.3,3,9.6,7.2,12.9,12.4c3.3,5.2,4.9,11.8,4.9,19.9
				c0,8.1-2.2,15.6-6.6,22.5c-4.5,6.9-11.2,12.4-20.4,16.6C2115.4,2535.8,2103.9,2537.9,2089.9,2537.9z"/>
			<path d="M2224.5,2511.9h86.1v23.8h-114.5V2383h111.5v23.7h-83.1V2511.9z M2222.3,2446.5h75.8v23.3h-75.8V2446.5z"/>
			<path d="M2358.6,2535.7V2383h23.4l66.7,111.4h-12.2l65.7-111.4h23.4l0.2,152.6h-26.8l-0.2-110.6h5.7l-55.9,93.1h-12.6l-56.7-93.1
				h6.5v110.6H2358.6z"/>
			<path d="M2561.7,2535.7l68.7-152.6h27.9l68.9,152.6h-29.7l-59.1-137.6h11.4l-58.9,137.6H2561.7z M2593.3,2500.3l7.6-22.2h82.5
				l7.6,22.2H2593.3z"/>
			<path d="M2762.9,2535.7V2383h23.4l95.8,117.5h-11.6V2383h28.1v152.6h-23.3l-95.8-117.5h11.5v117.5H2762.9z"/>
			<path d="M2934.5,2535.7l68.7-152.6h27.9l68.9,152.6h-29.7l-59.1-137.6h11.4l-58.9,137.6H2934.5z M2966.1,2500.3l7.6-22.2h82.5
				l7.6,22.2H2966.1z"/>
		</g>
	</g>
</g>
</svg>
